PathFileType	4	(X/Y/Z)	C:\Users\u0145647\OneDrive - KU Leuven\KU Leuven\c3d2osim\CP4\T0\Data\Processed\ViconC3D_CP4_2\CP4_T0_cmj_T2_gapFilled.trc
DataRate	CameraRate	NumFrames	NumMarkers	Units	OrigDataRate	OrigDataStartFrame	OrigNumFrames
100.000000	100.000000	4	47	mm	100.000000	320	638
Frame#	Time	C7			T10			CLAV			STRN			LSHO			RSHO			RBAK			LASI			RASI			LPSI			RPSI			LLAT			RLAT			LF1			LF2			LF3			LTHI			LKNE			LMEK			RF1			RF2			RF3			RTHI			RKNE			RMEK			LT1			LT2			LT3			LTIB			LANK			LMM			RT1			RT2			RT3			RTIB			RANK			RMM			LHEE			LSTL			LLCA			LTOE			LCM5			RHEE			RSTL			RLCA			RTOE			RCM5
		X1	Y1	Z1	X2	Y2	Z2	X3	Y3	Z3	X4	Y4	Z4	X5	Y5	Z5	X6	Y6	Z6	X7	Y7	Z7	X8	Y8	Z8	X9	Y9	Z9	X10	Y10	Z10	X11	Y11	Z11	X12	Y12	Z12	X13	Y13	Z13	X14	Y14	Z14	X15	Y15	Z15	X16	Y16	Z16	X17	Y17	Z17	X18	Y18	Z18	X19	Y19	Z19	X20	Y20	Z20	X21	Y21	Z21	X22	Y22	Z22	X23	Y23	Z23	X24	Y24	Z24	X25	Y25	Z25	X26	Y26	Z26	X27	Y27	Z27	X28	Y28	Z28	X29	Y29	Z29	X30	Y30	Z30	X31	Y31	Z31	X32	Y32	Z32	X33	Y33	Z33	X34	Y34	Z34	X35	Y35	Z35	X36	Y36	Z36	X37	Y37	Z37	X38	Y38	Z38	X39	Y39	Z39	X40	Y40	Z40	X41	Y41	Z41	X42	Y42	Z42	X43	Y43	Z43	X44	Y44	Z44	X45	Y45	Z45	X46	Y46	Z46	X47	Y47	Z47

320	3.19	-99.988	1471.5	-114.98	-75.591	1213.7	-225.31	-116.42	1344.3	-38.703	-130.89	1199.1	-45.487	98.329	1382.3	-35.42	-293.37	1408.3	-123.64	-210.12	1399.8	-203.16	-40.351	933.24	-84.268	-227.19	936.93	-156.9	-42.243	982.97	-262.4	-109.18	987.59	-289.48	29.163	998.7	-118.21	-248.24	1018.4	-220.47	76.519	691.83	-103.43	74.535	735.59	-119.8	84.05	686.17	-136.82	135.52	619.58	-118.38	80.062	484.44	-100.26	NaN	NaN	NaN	-284.27	666.93	-232.04	-287.97	700.71	-213.3	-264.69	696.62	-271.19	-327.88	607.7	-234.77	-281.23	483.26	-182.23	NaN	NaN	NaN	127.07	320.57	-169.24	110.54	353.74	-121	116.85	364.66	-171.45	163.87	253.55	-118.62	143.93	82.974	-204.74	58.043	78.297	-175.66	-312.85	340.32	-224.28	-299.33	379.12	-193.75	-301.25	387.86	-245.08	-365.02	275.31	-225.04	-325.3	95.612	-255.71	-245.67	96.138	-219.96	92.972	58.098	-246.01	66.705	48.315	-179.29	143.07	52.892	-199.51	131.73	48.272	-72.482	173.89	41.9	-91.758	-273.09	87.425	-294.88	-253.29	60.847	-227.15	-327.41	68.529	-251.12	-334.29	46.765	-126.18	-377.9	38.12	-164.85
321	3.2	-100.99	1471.8	-117.17	-76.097	1213.8	-227.39	-116.65	1344.4	-40.927	-131.69	1199.4	-47.241	97.552	1382.9	-37.802	-294.17	1408.1	-125.58	-211.08	1399.6	-205.27	-40.146	933.32	-85.647	-227.3	937.21	-158.08	-42.293	982.59	-264	-109.22	987.44	-290.85	29.239	998.19	-120.47	-248.85	1018.7	-221.59	76.259	691.71	-104.7	74.004	735.25	-120.86	83.495	685.91	-138.11	134.96	618.91	-120.01	79.315	484.45	-101.06	NaN	NaN	NaN	-284.84	667.21	-232.45	-288.17	700.88	-213.51	-265.57	696.97	-271.7	-328.54	608.04	-234.83	-281.41	483.28	-183.21	NaN	NaN	NaN	126.63	320.49	-169.52	109.95	353.82	-121.4	116.44	364.61	-171.87	163.11	253.44	-118.32	143.71	83.221	-204.85	57.71	78.212	-175.93	-312.96	340.14	-224.69	-299.44	379.01	-194.33	-301.57	387.73	-245.68	-365.16	275.11	-225.15	-325.34	95.347	-255.9	-245.68	96.092	-220.31	92.891	58.014	-246.21	66.423	48.264	-179.5	142.95	53.119	-199.83	131.31	48.449	-72.519	173.4	42.618	-91.895	-273.48	87.215	-295.12	-253.28	60.712	-227.35	-327.87	68.449	-251.15	-334.11	46.846	-126.24	-377.74	38.261	-164.78
322	3.21	-102.09	1472.1	-119.32	-76.88	1213.8	-229.22	-117.89	1344.9	-42.89	-132	1199.6	-49.105	96.823	1383.7	-40.366	-295.03	1408	-127.65	-212.13	1399.5	-207.35	-40.24	933.29	-87.094	-227.72	937.48	-159.39	-42.493	982.23	-265.59	-109.44	987.14	-292.22	29.134	997.88	-122.37	-249.48	1019	-222.93	76.076	691.93	-105.67	73.408	735.31	-121.9	82.985	686.04	-139	134.42	619.2	-120.68	78.703	484.55	-101.89	NaN	NaN	NaN	-285.58	667.4	-232.71	-288.66	701.06	-213.73	-266.86	697.2	-272.38	-329.57	608.33	-234.59	-281.85	483.27	-184.08	NaN	NaN	NaN	126.25	320.45	-169.54	109.06	353.68	-121.68	116.37	364.56	-172.11	162.25	252.86	-117.77	143.45	83.238	-204.95	57.412	78.128	-176.23	-313.21	339.99	-225.24	-299.42	378.76	-194.93	-301.92	387.49	-246.36	-365.39	274.92	-225.48	-325.34	94.892	-256.26	-245.53	95.967	-220.58	92.856	57.9	-246.37	66.187	48.235	-179.72	142.82	53.259	-199.9	130.91	48.639	-72.637	172.98	43.257	-92.008	-273.39	86.727	-295.33	-253.08	60.516	-227.5	-327.75	68.079	-251.31	-333.82	46.96	-126.29	-377.44	38.443	-164.77
323	3.22	-103.24	1472.3	-121.53	-77.66	1213.8	-231.05	-117.97	1344.9	-45.189	-132.31	1199.9	-50.969	96.001	1384.7	-43.112	-296	1407.8	-129.59	-213.17	1399.4	-209.42	-40.714	933.32	-88.616	-228.57	937.67	-160.7	-42.941	981.55	-267.17	-109.85	986.72	-293.58	28.177	997.74	-123.9	-250.09	1019.1	-224.49	75.513	692.36	-106.58	72.769	735.63	-122.83	82.381	686.42	-139.86	133.8	619.76	-120.7	78.247	484.76	-102.61	NaN	NaN	NaN	-286.68	667.56	-233.03	-289.48	701.23	-214.1	-268.15	697.23	-272.97	-330.88	608.68	-234.29	-282.53	483.15	-184.88	NaN	NaN	NaN	126.02	320.42	-169.72	108.91	353.79	-121.87	115.95	364.47	-172.32	161.83	253.25	-117.9	143.17	83.195	-204.97	57.183	78.09	-176.5	-313.51	339.69	-225.99	-300.22	378.67	-195.68	-302.21	387.18	-247.03	-365.48	274.48	-226.35	-325.17	94.271	-256.74	-245.23	95.711	-220.9	92.796	57.86	-246.52	65.977	48.255	-179.93	142.64	53.349	-199.96	130.58	48.87	-72.763	172.56	43.79	-92.142	-272.79	85.868	-295.63	-252.71	60.25	-227.65	-327.42	67.538	-251.54	-333.34	47.146	-126.45	-376.97	38.642	-164.84
